<svg preserveAspectRatio="none" overflow="visible" style="display: block;" width="24" height="24" viewBox="0 0 24 24" fill="none" xmlns="http://www.w3.org/2000/svg">
<g id="ikonka">
<path id="Vector" d="M20.1 3.9C20.3387 3.9 20.5676 3.99482 20.7364 4.1636C20.9052 4.33239 21 4.56131 21 4.8V19.2C21 19.4387 20.9052 19.6676 20.7364 19.8364C20.5676 20.0052 20.3387 20.1 20.1 20.1H3.9C3.66131 20.1 3.43239 20.0052 3.2636 19.8364C3.09482 19.6676 3 19.4387 3 19.2V4.8C3 4.56131 3.09482 4.33239 3.2636 4.1636C3.43239 3.99482 3.66131 3.9 3.9 3.9H20.1ZM11.1 12.9H4.8V18.3H11.1V12.9ZM19.2 12.9H12.9V18.3H19.2V12.9ZM11.1 5.7H4.8V11.1H11.1V5.7ZM19.2 5.7H12.9V11.1H19.2V5.7Z" fill="#A4A4A4"/>
</g>
</svg>
